<?xml version="1.0" encoding="UTF-8"?> <svg xmlns="http://www.w3.org/2000/svg" width="204" height="36" viewBox="0 0 204 36" fill="none"> <path fill-rule="evenodd" clip-rule="evenodd" d="M204 24.3202H200.342V0.23898H204V24.3202ZM2.50478 32.0233H0.779263V35.4885H0V27.9288H0.779263V31.3223H2.50478L5.05726 27.9288H5.91604L3.1091 31.6011L6.07507 35.4885H5.16063L2.49682 32.0233H2.50478ZM40.6251 33.4731H36.4186L35.5121 35.4965H34.6852L38.1362 27.9367H38.9234L42.3744 35.4965H41.5316L40.6251 33.4731ZM40.3309 32.8279L38.5179 28.7652L36.7049 32.8279H40.3309ZM33.2459 27.9367V35.4965H32.4826V29.4503L29.5166 34.5405H29.1429L26.1769 29.4821V35.4965H25.4135V27.9367H26.0735L29.3496 33.5448L32.5939 27.9367H33.2539H33.2459ZM20.0621 31.2426C20.5312 31.6489 20.7698 32.2384 20.7698 33.0111C20.7698 33.7838 20.5233 34.445 20.0223 34.8671C19.5213 35.2893 18.8057 35.4965 17.8594 35.4965H14.8617V27.9367H15.6489V30.6372H18.0185C18.9091 30.6372 19.5929 30.8364 20.0621 31.2426ZM19.4259 34.3972C19.7917 34.0865 19.9666 33.6324 19.9666 33.027C19.9666 31.864 19.2589 31.2904 17.8356 31.2904H15.6489V34.8671H17.8356C18.5353 34.8671 19.0601 34.7158 19.4259 34.4051V34.3972ZM22.0738 27.9367H22.861V35.4965H22.0738V27.9367ZM12.3966 28.6298C12.9453 29.0918 13.2157 29.7291 13.2157 30.5336C13.2157 31.3382 12.9453 31.9755 12.3966 32.4296C11.848 32.8836 11.0926 33.1146 10.1304 33.1146H8.10275V35.5044H7.30758V27.9447H10.1304C11.0926 27.9447 11.848 28.1757 12.3966 28.6377V28.6298ZM11.8241 31.9197C12.2217 31.5931 12.4205 31.1311 12.4205 30.5336C12.4205 29.9362 12.2217 29.4503 11.8241 29.1237C11.4265 28.7971 10.854 28.6298 10.1066 28.6298H8.10275V32.4136H10.1066C10.854 32.4136 11.4265 32.2463 11.8241 31.9197ZM14.5834 0.23898H0V24.3202H3.65777V3.90334H10.9176V24.3202H14.5754V0.23898H14.5834ZM80.614 12.2836C80.614 7.52786 84.4626 3.67232 89.2097 3.67232V0C82.4429 0 76.9483 5.49653 76.9483 12.2836C76.9483 19.0706 82.4349 24.5671 89.2097 24.5671V20.9028C84.4626 20.9028 80.614 17.0472 80.614 12.2915V12.2836ZM115.331 0C108.564 0 103.069 5.49653 103.069 12.2836C103.069 19.0706 108.556 24.5671 115.331 24.5671C122.106 24.5671 127.592 19.0706 127.592 12.2836C127.592 5.49653 122.106 0 115.331 0ZM115.331 20.8948C110.584 20.8948 106.735 17.0393 106.735 12.2836C106.735 7.52786 110.584 3.67232 115.331 3.67232C120.078 3.67232 123.927 7.52786 123.927 12.2836C123.927 17.0393 120.078 20.8948 115.331 20.8948ZM63.7167 0C56.9498 0 51.4552 5.49653 51.4552 12.2836C51.4552 19.0706 56.9419 24.5671 63.7167 24.5671C70.4915 24.5671 75.9782 19.0706 75.9782 12.2836C75.9782 5.49653 70.4915 0 63.7167 0ZM63.7167 20.8948C58.9696 20.8948 55.113 17.0393 55.113 12.2836C55.113 7.52786 58.9616 3.67232 63.7167 3.67232C68.4718 3.67232 72.3125 7.52786 72.3125 12.2836C72.3125 17.0393 68.4639 20.8948 63.7167 20.8948ZM105.201 0.215082V3.87944H99.857V24.3281H96.1357V3.87944H90.6172V0.215082H105.201ZM199.253 15.3903C199.253 10.5231 195.365 6.57194 190.53 6.47635L168.194 6.46839V0.246946H164.472V24.3202H190.53C195.365 24.2086 199.253 20.2575 199.253 15.3903ZM190.347 20.6558H168.202V10.1248H190.347C193.249 10.1248 195.603 12.4827 195.603 15.3903C195.603 18.2979 193.249 20.6558 190.347 20.6558Z" fill="white"></path> <path fill-rule="evenodd" clip-rule="evenodd" d="M163.398 9.168C163.398 4.30078 159.509 0.349652 154.675 0.25406L154.484 0.246094H128.617V24.3193H132.339V18.0979H154.675C159.509 17.9864 163.398 14.0352 163.398 9.168ZM154.484 14.4335H132.339V3.90248H154.484C157.386 3.90248 159.74 6.26042 159.74 9.168C159.74 12.0756 157.386 14.4335 154.484 14.4335Z" fill="#FF744E"></path> <path fill-rule="evenodd" clip-rule="evenodd" d="M50.765 9.168C50.765 4.30078 46.8766 0.349652 42.042 0.25406L41.8511 0.246094H15.9844V24.3193H19.7058V18.0979H42.042C46.8766 17.9864 50.765 14.0352 50.765 9.168ZM41.8511 14.4335H19.7058V3.90248H41.8511C44.7535 3.90248 47.1072 6.26042 47.1072 9.168C47.1072 12.0756 44.7535 14.4335 41.8511 14.4335Z" fill="#FF744E"></path> </svg> 